<?xml version="1.0" encoding="UTF-8"?>
<svg xmlns="http://www.w3.org/2000/svg" xmlns:xlink="http://www.w3.org/1999/xlink" width="24px" height="24px" viewBox="0 0 24 24" version="1.1">
    <!-- Generator: Sketch 50 (54983) - http://www.bohemiancoding.com/sketch -->
    <title>005 - Website Coding</title>
    <desc>Created with Sketch.</desc>
    <defs/>
    <g id="Page-1" stroke="none" stroke-width="1" fill="none" fill-rule="evenodd">
        <g id="005---Website-Coding" fill="#40464C" fill-rule="nonzero">
            <path d="M6.333,15.742 L9.292,18.707 C9.487,18.903 9.743,19 10,19 C10.257,19 10.511,18.902 10.707,18.708 C11.098,18.318 11.099,17.685 10.707,17.294 L8.416,14.999 L10.707,12.708 C11.098,12.317 11.098,11.685 10.707,11.294 C10.316,10.903 9.684,10.903 9.293,11.294 L6.293,14.294 C6.007,14.58 5.924,15.01 6.079,15.384 C6.137,15.524 6.225,15.646 6.333,15.743 L6.333,15.742 Z" id="Shape"/>
            <path d="M13.293,18.707 C13.488,18.902 13.744,19 14,19 C14.256,19 14.512,18.902 14.707,18.707 L17.707,15.707 C17.993,15.421 18.076,14.991 17.921,14.617 C17.863,14.477 17.775,14.355 17.667,14.258 L14.708,11.293 C14.318,10.902 13.685,10.902 13.294,11.293 C12.903,11.683 12.902,12.316 13.294,12.707 L15.585,15.002 L13.294,17.293 C12.903,17.684 12.903,18.316 13.294,18.707 L13.293,18.707 Z" id="Shape"/>
            <path d="M22,0 L2,0 C0.897,0 0,0.897 0,2 L0,22 C0,23.103 0.897,24 2,24 L22,24 C23.103,24 24,23.103 24,22 L24,2 C24,0.897 23.103,0 22,0 Z M2,2 L22,2 L22,6 L2,6 L2,2 Z M22,22 L2,22 L2,8 L22,8 L22,22 Z" id="Shape"/>
            <circle id="Oval" cx="4" cy="4" r="1"/>
            <circle id="Oval" cx="7" cy="4" r="1"/>
            <circle id="Oval" cx="10" cy="4" r="1"/>
        </g>
    </g>
</svg>
