<svg id="SvgjsSvg1049" width="288" height="288" xmlns="http://www.w3.org/2000/svg" version="1.1" xmlns:xlink="http://www.w3.org/1999/xlink" xmlns:svgjs="http://svgjs.com/svgjs"><defs id="SvgjsDefs1050"></defs><g id="SvgjsG1051"><svg xmlns="http://www.w3.org/2000/svg" viewBox="0 0 24 24" width="288" height="288"><g fill="#40464c" fill-rule="nonzero" class="color40464C svgShape"><path d="M22,0 L2,0 C0.897,0 0,0.897 0,2 L0,22 C0,23.103 0.897,24 2,24 L22,24 C23.103,24 24,23.103 24,22 L24,2 C24,0.897 23.103,0 22,0 Z M10.708,17.293 C11.099,17.684 11.098,18.317 10.708,18.707 C10.513,18.902 10.257,18.999 10.001,18.999 C9.745,18.999 9.489,18.901 9.293,18.706 L6.334,15.741 C6.226,15.644 6.138,15.522 6.08,15.382 C5.925,15.008 6.008,14.578 6.294,14.292 L9.294,11.292 C9.685,10.901 10.317,10.901 10.708,11.292 C11.099,11.683 11.099,12.315 10.708,12.706 L8.417,14.997 L10.708,17.292 L10.708,17.293 Z M17.708,15.707 L14.708,18.707 C14.513,18.902 14.257,19 14.001,19 C13.745,19 13.489,18.902 13.294,18.707 C12.903,18.316 12.903,17.684 13.294,17.293 L15.585,15.002 L13.294,12.707 C12.903,12.316 12.904,11.683 13.294,11.293 C13.685,10.903 14.318,10.903 14.708,11.293 L17.667,14.258 C17.775,14.355 17.863,14.477 17.921,14.617 C18.076,14.991 17.993,15.421 17.707,15.707 L17.708,15.707 Z M22.001,6 L2,6 L2,2 L22,2 L22,6 L22.001,6 Z" fill="#3b82f6" class="color000 svgShape"></path><circle cx="4" cy="4" r="1" fill="#3b82f6" class="color000 svgShape"></circle><circle cx="7" cy="4" r="1" fill="#3b82f6" class="color000 svgShape"></circle><circle cx="10" cy="4" r="1" fill="#3b82f6" class="color000 svgShape"></circle></g></svg></g></svg>