<svg id="SvgjsSvg1039" width="288" height="288" xmlns="http://www.w3.org/2000/svg" version="1.1" xmlns:xlink="http://www.w3.org/1999/xlink" xmlns:svgjs="http://svgjs.com/svgjs"><defs id="SvgjsDefs1040"></defs><g id="SvgjsG1041"><svg xmlns="http://www.w3.org/2000/svg" viewBox="0 0 24 24" width="288" height="288"><g fill="#40464c" fill-rule="nonzero" class="color40464C svgShape"><path d="M6.333 15.742L9.292 18.707C9.487 18.903 9.743 19 10 19 10.257 19 10.511 18.902 10.707 18.708 11.098 18.318 11.099 17.685 10.707 17.294L8.416 14.999 10.707 12.708C11.098 12.317 11.098 11.685 10.707 11.294 10.316 10.903 9.684 10.903 9.293 11.294L6.293 14.294C6.007 14.58 5.924 15.01 6.079 15.384 6.137 15.524 6.225 15.646 6.333 15.743L6.333 15.742zM13.293 18.707C13.488 18.902 13.744 19 14 19 14.256 19 14.512 18.902 14.707 18.707L17.707 15.707C17.993 15.421 18.076 14.991 17.921 14.617 17.863 14.477 17.775 14.355 17.667 14.258L14.708 11.293C14.318 10.902 13.685 10.902 13.294 11.293 12.903 11.683 12.902 12.316 13.294 12.707L15.585 15.002 13.294 17.293C12.903 17.684 12.903 18.316 13.294 18.707L13.293 18.707z" fill="#3b82f6" class="color000 svgShape"></path><path d="M22,0 L2,0 C0.897,0 0,0.897 0,2 L0,22 C0,23.103 0.897,24 2,24 L22,24 C23.103,24 24,23.103 24,22 L24,2 C24,0.897 23.103,0 22,0 Z M2,2 L22,2 L22,6 L2,6 L2,2 Z M22,22 L2,22 L2,8 L22,8 L22,22 Z" fill="#3b82f6" class="color000 svgShape"></path><circle cx="4" cy="4" r="1" fill="#3b82f6" class="color000 svgShape"></circle><circle cx="7" cy="4" r="1" fill="#3b82f6" class="color000 svgShape"></circle><circle cx="10" cy="4" r="1" fill="#3b82f6" class="color000 svgShape"></circle></g></svg></g></svg>